HIERARCHY
ROOT Hips
{
	OFFSET 0.000000 97.167313 0.000000
	CHANNELS 6 Xposition Yposition Zposition Xrotation Yrotation Zrotation
	JOINT Spine
	{
		OFFSET 0.000000 13.784798 0.064400
		CHANNELS 3 Xrotation Yrotation Zrotation
		JOINT Spine1
		{
			OFFSET 0.000000 12.037903 0.404700
			CHANNELS 3 Xrotation Yrotation Zrotation
			JOINT Spine2
			{
				OFFSET 0.000000 17.795601 0.420200
				CHANNELS 3 Xrotation Yrotation Zrotation
				JOINT Neck
				{
					OFFSET 0.000000 39.131302 11.954600
					CHANNELS 3 Xrotation Yrotation Zrotation
					JOINT Head
					{
						OFFSET 0.000000 14.456192 15.627699
						CHANNELS 3 Xrotation Yrotation Zrotation
						JOINT HeadTop_End
						{
							OFFSET 0.000000 15.703506 7.603401
							CHANNELS 3 Xrotation Yrotation Zrotation
							End Site
							{
								OFFSET 0.000000 17.447403 0.000000
							}
						}
					}
				}
				JOINT LeftShoulder
				{
					OFFSET 17.399500 24.608795 1.168800
					CHANNELS 3 Xrotation Yrotation Zrotation
					JOINT LeftArm
					{
						OFFSET 18.980635 5.765305 1.818600
						CHANNELS 3 Xrotation Yrotation Zrotation
						JOINT LeftForeArm
						{
							OFFSET 49.290169 0.000000 0.000000
							CHANNELS 3 Xrotation Yrotation Zrotation
							JOINT LeftHand
							{
								OFFSET 31.562012 0.000000 0.000000
								CHANNELS 3 Xrotation Yrotation Zrotation
								JOINT LeftHandThumb1
								{
									OFFSET 6.133995 -4.388519 7.076070
									CHANNELS 3 Xrotation Yrotation Zrotation
									JOINT LeftHandThumb2
									{
										OFFSET 6.037666 -3.485840 3.485847
										CHANNELS 3 Xrotation Yrotation Zrotation
										JOINT LeftHandThumb3
										{
											OFFSET 6.496506 -3.750763 3.750761
											CHANNELS 3 Xrotation Yrotation Zrotation
											JOINT LeftHandThumb4
											{
												OFFSET 5.616882 -3.242905 3.242910
												CHANNELS 3 Xrotation Yrotation Zrotation
												End Site
												{
													OFFSET -1.254608 7.132141 0.375429
												}
											}
										}
									}
								}
								JOINT LeftHandPinky1
								{
									OFFSET 18.920792 -0.453171 -11.426712
									CHANNELS 3 Xrotation Yrotation Zrotation
									JOINT LeftHandPinky2
									{
										OFFSET 4.919586 0.000000 0.000000
										CHANNELS 3 Xrotation Yrotation Zrotation
										JOINT LeftHandPinky3
										{
											OFFSET 5.233047 0.000000 0.000000
											CHANNELS 3 Xrotation Yrotation Zrotation
											JOINT LeftHandPinky4
											{
												OFFSET 5.571716 0.000000 0.000000
												CHANNELS 3 Xrotation Yrotation Zrotation
												End Site
												{
													OFFSET -3.459808 4.342407 -0.466164
												}
											}
										}
									}
								}
								JOINT LeftHandRing1
								{
									OFFSET 22.726120 -0.094986 -6.500475
									CHANNELS 3 Xrotation Yrotation Zrotation
									JOINT LeftHandRing2
									{
										OFFSET 6.408615 0.000000 0.000000
										CHANNELS 3 Xrotation Yrotation Zrotation
										JOINT LeftHandRing3
										{
											OFFSET 6.150223 0.000000 0.000000
											CHANNELS 3 Xrotation Yrotation Zrotation
											JOINT LeftHandRing4
											{
												OFFSET 6.145386 0.000000 0.000000
												CHANNELS 3 Xrotation Yrotation Zrotation
												End Site
												{
													OFFSET -3.671402 4.923981 -0.202372
												}
											}
										}
									}
								}
								JOINT LeftHandMiddle1
								{
									OFFSET 23.373947 0.000000 0.000001
									CHANNELS 3 Xrotation Yrotation Zrotation
									JOINT LeftHandMiddle2
									{
										OFFSET 6.996567 0.000000 0.000000
										CHANNELS 3 Xrotation Yrotation Zrotation
										JOINT LeftHandMiddle3
										{
											OFFSET 7.015945 0.000000 0.000000
											CHANNELS 3 Xrotation Yrotation Zrotation
											JOINT LeftHandMiddle4
											{
												OFFSET 7.721573 0.000000 0.000000
												CHANNELS 3 Xrotation Yrotation Zrotation
												End Site
												{
													OFFSET -4.651108 6.158463 0.251582
												}
											}
										}
									}
								}
								JOINT LeftHandIndex1
								{
									OFFSET 21.310577 -0.490082 6.209344
									CHANNELS 3 Xrotation Yrotation Zrotation
									JOINT LeftHandIndex2
									{
										OFFSET 7.536453 0.000000 0.000000
										CHANNELS 3 Xrotation Yrotation Zrotation
										JOINT LeftHandIndex3
										{
											OFFSET 7.512344 0.000000 0.000000
											CHANNELS 3 Xrotation Yrotation Zrotation
											JOINT LeftHandIndex4
											{
												OFFSET 10.212402 0.000000 0.000001
												CHANNELS 3 Xrotation Yrotation Zrotation
												End Site
												{
													OFFSET -5.180801 8.690506 1.388433
												}
											}
										}
									}
								}
							}
						}
					}
				}
				JOINT RightShoulder
				{
					OFFSET -17.399500 24.608795 1.168800
					CHANNELS 3 Xrotation Yrotation Zrotation
					JOINT RightArm
					{
						OFFSET -18.980635 5.765305 1.818600
						CHANNELS 3 Xrotation Yrotation Zrotation
						JOINT RightForeArm
						{
							OFFSET -49.290169 0.000000 0.000000
							CHANNELS 3 Xrotation Yrotation Zrotation
							JOINT RightHand
							{
								OFFSET -31.562012 0.000000 0.000000
								CHANNELS 3 Xrotation Yrotation Zrotation
								JOINT RightHandThumb1
								{
									OFFSET -6.133995 -4.388519 7.076070
									CHANNELS 3 Xrotation Yrotation Zrotation
									JOINT RightHandThumb2
									{
										OFFSET -6.037666 -3.485840 3.485847
										CHANNELS 3 Xrotation Yrotation Zrotation
										JOINT RightHandThumb3
										{
											OFFSET -6.496506 -3.750763 3.750761
											CHANNELS 3 Xrotation Yrotation Zrotation
											JOINT RightHandThumb4
											{
												OFFSET -5.616882 -3.242905 3.242910
												CHANNELS 3 Xrotation Yrotation Zrotation
												End Site
												{
													OFFSET 1.254608 7.132141 0.375429
												}
											}
										}
									}
								}
								JOINT RightHandIndex1
								{
									OFFSET -21.310577 -0.490082 6.209344
									CHANNELS 3 Xrotation Yrotation Zrotation
									JOINT RightHandIndex2
									{
										OFFSET -7.536453 0.000000 0.000000
										CHANNELS 3 Xrotation Yrotation Zrotation
										JOINT RightHandIndex3
										{
											OFFSET -7.512344 0.000000 0.000000
											CHANNELS 3 Xrotation Yrotation Zrotation
											JOINT RightHandIndex4
											{
												OFFSET -10.212402 0.000000 0.000001
												CHANNELS 3 Xrotation Yrotation Zrotation
												End Site
												{
													OFFSET 5.180801 8.690506 1.388433
												}
											}
										}
									}
								}
								JOINT RightHandMiddle1
								{
									OFFSET -23.373947 0.000000 0.000001
									CHANNELS 3 Xrotation Yrotation Zrotation
									JOINT RightHandMiddle2
									{
										OFFSET -6.996567 0.000000 0.000000
										CHANNELS 3 Xrotation Yrotation Zrotation
										JOINT RightHandMiddle3
										{
											OFFSET -7.015945 0.000000 0.000000
											CHANNELS 3 Xrotation Yrotation Zrotation
											JOINT RightHandMiddle4
											{
												OFFSET -7.721573 0.000000 0.000000
												CHANNELS 3 Xrotation Yrotation Zrotation
												End Site
												{
													OFFSET 4.651108 6.158463 0.251582
												}
											}
										}
									}
								}
								JOINT RightHandRing1
								{
									OFFSET -22.726120 -0.094986 -6.500475
									CHANNELS 3 Xrotation Yrotation Zrotation
									JOINT RightHandRing2
									{
										OFFSET -6.408615 0.000000 0.000000
										CHANNELS 3 Xrotation Yrotation Zrotation
										JOINT RightHandRing3
										{
											OFFSET -6.150223 0.000000 0.000000
											CHANNELS 3 Xrotation Yrotation Zrotation
											JOINT RightHandRing4
											{
												OFFSET -6.145386 0.000000 0.000000
												CHANNELS 3 Xrotation Yrotation Zrotation
												End Site
												{
													OFFSET 3.671402 4.923981 -0.202372
												}
											}
										}
									}
								}
								JOINT RightHandPinky1
								{
									OFFSET -18.920792 -0.453171 -11.426712
									CHANNELS 3 Xrotation Yrotation Zrotation
									JOINT RightHandPinky2
									{
										OFFSET -4.919586 0.000000 0.000000
										CHANNELS 3 Xrotation Yrotation Zrotation
										JOINT RightHandPinky3
										{
											OFFSET -5.233047 0.000000 0.000000
											CHANNELS 3 Xrotation Yrotation Zrotation
											JOINT RightHandPinky4
											{
												OFFSET -5.571716 0.000000 0.000000
												CHANNELS 3 Xrotation Yrotation Zrotation
												End Site
												{
													OFFSET 3.459808 4.342407 -0.466164
												}
											}
										}
									}
								}
							}
						}
					}
				}
			}
		}
	}
	JOINT LeftUpLeg
	{
		OFFSET 19.899099 -7.885101 -3.429500
		CHANNELS 3 Xrotation Yrotation Zrotation
		JOINT LeftLeg
		{
			OFFSET 1.745560 -36.997807 10.304700
			CHANNELS 3 Xrotation Yrotation Zrotation
			JOINT LeftFoot
			{
				OFFSET -1.745558 -29.803308 -13.615400
				CHANNELS 3 Xrotation Yrotation Zrotation
				JOINT LeftToeBase
				{
					OFFSET 1.181900 -18.539904 15.226099
					CHANNELS 3 Xrotation Yrotation Zrotation
					JOINT LeftToe_End
					{
						OFFSET -0.863701 1.402801 16.534700
						CHANNELS 3 Xrotation Yrotation Zrotation
						End Site
						{
							OFFSET 0.000000 16.616566 0.000000
						}
					}
				}
			}
		}
	}
	JOINT RightUpLeg
	{
		OFFSET -19.899099 -7.885101 -3.429500
		CHANNELS 3 Xrotation Yrotation Zrotation
		JOINT RightLeg
		{
			OFFSET -1.745560 -36.997807 10.304700
			CHANNELS 3 Xrotation Yrotation Zrotation
			JOINT RightFoot
			{
				OFFSET 1.745558 -29.803308 -13.615400
				CHANNELS 3 Xrotation Yrotation Zrotation
				JOINT RightToeBase
				{
					OFFSET -1.181900 -18.539904 15.226099
					CHANNELS 3 Xrotation Yrotation Zrotation
					JOINT RightToe_End
					{
						OFFSET 0.863701 1.402801 16.534700
						CHANNELS 3 Xrotation Yrotation Zrotation
						End Site
						{
							OFFSET 0.000000 16.616566 0.000000
						}
					}
				}
			}
		}
	}
}
MOTION
Frames: 4
Frame Time: 0.033333
3.244334 80.272064 7.813223 8.059184 15.960900 -3.001500 9.329003 8.724097 5.887154 7.321693 4.667524 1.312925 7.312703 4.684400 1.307606 3.991977 10.979599 -2.498699 4.362119 47.908268 -29.775533 0.000001 -0.000001 -0.000001 0.739373 -1.393310 -18.044713 -5.565989 -6.933965 -33.189713 0.000121 -77.088015 0.000097 -28.588001 -3.818849 -10.403757 -4.490301 -5.548013 -3.758052 9.100000 36.442840 3.135886 -3.966963 39.793075 22.815579 -0.000000 -0.000001 0.000003 -2.209883 17.870406 -25.946617 6.435850 5.821854 -95.746022 1.173594 3.519067 -36.877236 0.000000 0.000001 -0.000000 1.677659 7.666215 -20.683737 6.484176 5.816817 -96.222428 1.173247 3.518572 -36.871311 0.000002 -0.000002 0.000005 0.159908 3.416302 -10.365899 5.186097 5.813286 -83.463136 0.536435 2.450881 -24.687843 -0.000002 -0.000001 0.000008 7.075844 -8.503056 12.247002 3.982965 5.545817 -71.350574 0.100183 1.079914 -10.599833 0.000004 -0.000000 0.000001 1.404818 15.763334 2.179495 -16.091413 -3.049842 38.803073 0.000035 52.107001 -0.000035 27.621449 15.444554 -15.923715 -4.813382 13.867370 5.983962 9.780145 -43.865145 -3.883567 -2.709060 -44.374960 -22.710032 -0.000001 -0.000001 0.000001 0.071369 9.170649 5.541361 1.881390 -3.741029 53.384328 0.133303 -1.107414 13.726647 -0.000001 -0.000001 0.000001 -2.155992 2.728924 20.907136 2.124590 -3.909610 57.028118 0.507552 -2.116075 26.973196 -0.000003 0.000003 -0.000006 1.349479 -5.513780 46.173096 1.482551 -3.409235 46.994635 0.939457 -2.806954 37.004059 -0.000000 0.000001 -0.000005 2.423302 -14.669045 46.809950 1.544707 -3.466079 48.031369 1.850876 -3.718185 52.914930 0.000001 0.000000 0.000000 -57.050343 -4.972885 6.031973 50.748408 4.701741 2.405507 10.936362 -0.037308 -7.390802 -3.319987 0.135818 -2.189608 -0.000000 -0.000000 0.000000 -36.516544 -20.520888 -4.772535 50.612795 2.598266 -8.526050 -25.250496 -18.651621 1.278223 0.484572 0.000002 0.000005 0.000000 -0.000001 -0.000000 
4.799910 78.904526 4.408932 7.666182 14.466259 -2.410425 9.517415 7.602387 5.384970 6.982254 3.921549 0.950177 6.985598 3.927553 1.019138 4.146448 11.199338 -2.299736 5.624496 48.346517 -29.119067 0.000000 0.000000 -0.000001 0.587401 -3.682809 -10.225667 -8.147065 -8.723460 -28.185897 0.000025 -67.119081 -0.000002 -30.092113 -4.729562 -12.421979 -4.490300 -5.548014 -3.758059 9.023141 35.850792 3.104980 -3.965842 38.275188 22.423147 -0.000002 -0.000001 0.000003 -1.560495 18.209167 -29.650377 6.621950 5.800233 -97.583835 1.344599 3.735702 -39.579468 0.000001 0.000003 -0.000000 2.034262 7.976502 -24.122288 6.652245 5.796119 -97.883578 1.340017 3.730163 -39.509205 0.000003 -0.000003 0.000005 0.228132 3.737740 -13.805754 5.328776 5.827780 -84.869868 0.660727 2.704678 -27.450916 0.000002 0.000001 0.000007 7.082781 -8.217008 7.795207 4.055425 5.569622 -72.098965 0.166560 1.388410 -13.680746 -0.000001 0.000003 0.000001 1.787000 14.973687 -1.816817 -16.231161 -4.240931 32.375455 0.000022 55.787827 0.000004 20.901354 13.953648 -13.299904 -4.364754 13.255722 6.847106 9.693316 -43.143829 -3.859669 -2.707232 -43.336792 -22.472195 -0.000001 0.000000 0.000002 0.234098 8.301755 12.582731 1.995714 -3.823146 55.117014 0.172126 -1.255736 15.609880 0.000002 -0.000001 -0.000001 -2.751909 1.895518 27.997075 2.269682 -3.999778 59.131673 0.588892 -2.268726 29.099372 -0.000000 -0.000001 -0.000006 1.660510 -5.807194 51.436737 1.611991 -3.525306 49.134752 1.051867 -2.949980 39.241698 0.000000 0.000002 0.000000 2.760815 -14.947860 52.166611 1.682496 -3.584971 50.271818 2.004152 -3.829002 55.243646 0.000002 -0.000001 -0.000003 -55.308290 -6.255312 9.086338 58.734026 4.263043 2.048755 9.156482 0.174127 -6.820148 -9.795037 1.234856 -6.791861 0.000000 0.000003 -0.000000 -42.467794 -19.138960 -8.113251 53.244186 3.008494 -8.488418 -21.768424 -16.870113 2.663659 0.523947 -0.000003 0.000002 0.000000 -0.000001 0.000000 
6.632827 78.168907 0.703996 7.108654 13.075325 -1.705997 9.544577 6.687523 4.851522 6.562200 3.175594 0.577448 6.557692 3.161583 0.720694 4.283284 11.384974 -2.047356 6.845166 48.755840 -28.224128 -0.000001 -0.000000 -0.000000 0.685561 -4.598363 -0.003962 -9.739773 -10.872238 -25.216693 0.000009 -53.601392 -0.000002 -26.884572 -2.720406 -17.209299 -4.490301 -5.548013 -3.758052 8.823341 34.305865 3.020837 -4.022251 34.314174 21.433849 0.000000 0.000002 0.000001 0.013325 18.810964 -39.110705 7.061600 5.724885 -101.960483 1.814215 4.238936 -46.325273 0.000002 0.000000 -0.000002 3.014886 8.617743 -32.900980 7.046119 5.728130 -101.805329 1.796556 4.222058 -46.085919 -0.000002 0.000000 0.000003 0.481639 4.533583 -22.573905 5.661786 5.848007 -88.142983 1.024840 3.311878 -34.380765 -0.000001 -0.000002 0.000004 7.237506 -7.481887 -3.578575 4.215093 5.618452 -73.736666 0.407899 2.149576 -21.486144 0.000003 0.000001 0.000001 1.775356 14.066512 -5.348541 -16.326246 -7.894923 26.815859 -0.000003 59.628255 0.000017 13.506635 10.083304 -10.668372 -3.312888 11.830876 8.843434 9.477976 -41.334949 -3.794542 -2.727850 -40.733001 -21.892537 -0.000001 -0.000001 -0.000000 1.151030 6.482798 28.748642 2.268229 -3.998943 59.110977 0.280046 -1.592151 19.950370 -0.000002 -0.000002 0.000003 -3.442465 -0.568430 44.266436 2.615236 -4.186535 63.970076 0.797535 -2.608198 34.000087 -0.000000 -0.000000 -0.000007 2.481228 -6.371749 63.581719 1.926215 -3.773841 54.068269 1.331570 -3.262119 44.400157 0.000000 -0.000000 -0.000003 3.631965 -15.465976 64.540110 2.017070 -3.837899 55.436763 2.373722 -4.060018 60.612014 -0.000000 -0.000001 0.000004 -51.013218 -7.107780 13.016850 63.341726 2.166211 1.719507 7.985640 0.403742 -9.197225 -15.110187 2.159703 -8.715629 -0.000001 -0.000002 0.000000 -47.482386 -17.136523 -11.279263 53.490015 3.124818 -8.383104 -16.547948 -14.673608 4.562292 0.639561 0.000001 0.000001 -0.000000 -0.000001 -0.000000 
8.721073 79.249847 -3.007706 6.674589 11.640421 -1.089113 9.204730 5.996937 4.284441 6.295507 2.712262 0.232710 6.285515 2.695999 0.396704 4.508238 11.318653 -1.700615 7.849071 48.929720 -28.008155 0.000001 0.000000 -0.000001 0.618223 -3.644361 8.020329 -10.189414 -9.449395 -24.071417 0.000012 -40.649704 0.000004 -22.358735 -1.251672 -23.345713 -4.490302 -5.548006 -3.758051 8.546457 32.154929 2.895523 -4.226749 28.800828 20.116345 0.000001 -0.000000 -0.000002 1.794279 19.096374 -51.779606 7.575635 5.591978 -107.170265 2.505042 4.802645 -55.072857 -0.000001 0.000002 0.000001 4.403156 9.121828 -44.700306 7.500078 5.614649 -106.396391 2.465268 4.774708 -54.596308 -0.000003 0.000003 0.000003 0.996192 5.532069 -34.347307 6.040797 5.847998 -91.861441 1.606091 4.030501 -43.439443 0.000002 -0.000002 0.000006 7.757322 -6.546348 -18.905318 4.373879 5.662150 -75.352191 0.884115 3.096517 -31.863539 -0.000003 0.000003 0.000001 1.630817 13.033608 -8.224160 -17.143165 -12.498704 20.135664 0.000038 63.974455 -0.000028 6.565328 7.613299 -9.406309 -2.110285 10.221662 11.079151 9.201038 -38.970775 -3.698769 -2.803601 -37.330037 -21.164463 -0.000001 -0.000002 0.000002 2.925364 5.020715 46.695995 2.585278 -4.171845 63.558974 0.429759 -1.955800 24.783871 -0.000000 -0.000003 -0.000001 -2.764413 -3.628970 62.362878 3.014056 -4.358273 69.319522 1.063071 -2.963659 39.459225 0.000000 0.000000 -0.000001 3.523632 -6.781958 77.123327 2.299866 -4.017637 59.563389 1.674652 -3.578451 50.146187 -0.000000 -0.000000 -0.000005 4.713687 -15.815636 78.351750 2.414756 -4.082791 61.189814 2.808672 -4.275350 66.591407 0.000002 0.000000 -0.000003 -44.519016 -7.282101 15.541583 61.120590 -0.732688 1.675752 10.026641 0.233194 -13.586824 -22.625014 2.047809 -6.986167 0.000001 0.000000 -0.000000 -49.812129 -15.854845 -13.408390 48.891522 3.173921 -8.694296 -9.877962 -11.756251 6.623843 1.250453 -0.000007 -0.000006 0.000000 -0.000001 -0.000000 
